<?xml version="1.0" encoding="utf-8"?>
<!-- Generator: Adobe Illustrator 15.0.0, SVG Export Plug-In . SVG Version: 6.00 Build 0)  -->
<!DOCTYPE svg PUBLIC "-//W3C//DTD SVG 1.1//EN" "http://www.w3.org/Graphics/SVG/1.1/DTD/svg11.dtd">
<svg version="1.1" id="Layer_1" xmlns="http://www.w3.org/2000/svg" xmlns:xlink="http://www.w3.org/1999/xlink" x="0px" y="0px"
	 width="300px" height="300px" viewBox="0 0 300 300" enable-background="new 0 0 300 300" xml:space="preserve">
<g>
	<path fill="#FFB81F" d="M150.755,14.989c-74.779,0-135.402,60.625-135.402,135.41c0,74.781,60.623,135.414,135.402,135.414
		c74.787,0,135.414-60.633,135.414-135.414C286.169,75.614,225.542,14.989,150.755,14.989z M150.755,266.663
		c-64.204,0-116.262-52.056-116.262-116.264c0-64.209,52.059-116.26,116.262-116.26c64.211,0,116.261,52.05,116.261,116.26
		C267.016,214.609,214.967,266.663,150.755,266.663z"/>
	<path fill="#FFB81F" d="M255.508,150.399c0,57.849-46.897,104.744-104.749,104.744S46.018,208.248,46.018,150.399
		S92.908,45.652,150.759,45.652S255.508,92.55,255.508,150.399z"/>
	<path fill="#FFFFFF" d="M186.26,134.3l-35.657-61.574l-35.505,61.671l-35.497,61.677l71.163-0.102l71.163-0.101L186.26,134.3z
		 M159.799,107.211l-2.499,51.527h-12.965l-2.506-51.527H159.799z M150.819,185.132h-0.115c-6.022,0-10.125-4.44-10.125-10.354
		c0-6.143,4.208-10.357,10.241-10.357c6.022,0,10.01,4.212,10.121,10.357C160.94,180.689,156.958,185.132,150.819,185.132z"/>
</g>
</svg>
