<svg width="46" height="46" viewBox="0 0 46 46" fill="none" xmlns="http://www.w3.org/2000/svg">
<path d="M23 46C35.7029 46 46 35.7029 46 23C46 10.2971 35.7029 0 23 0C10.2971 0 0 10.2971 0 23C0 35.7029 10.2971 46 23 46ZM23 2.5021C34.2594 2.5021 43.4979 11.7406 43.4979 23C43.4979 34.2594 34.2594 43.4979 23 43.4979C11.7406 43.4979 2.50209 34.2594 2.50209 23C2.50209 11.7406 11.7406 2.5021 23 2.5021Z" fill="white"/>
<path d="M23.4816 36.184L25.2139 34.3555L13.9545 22.9999L25.2139 11.6443L23.4816 9.8158L10.2975 22.9999L23.4816 36.184Z" fill="white"/>
<path d="M12.1254 24.3473H35.2217V21.6527H12.1254V24.3473Z" fill="white"/>
</svg>
