<svg xmlns="http://www.w3.org/2000/svg" width="57" height="59" fill="silver" xmlns:v="https://vecta.io/nano"><path d="M28.125 59c-5.563 0-11-1.724-15.625-4.953s-8.23-7.82-10.359-13.191-2.686-11.28-1.6-16.982S4.304 12.935 8.238 8.825s8.945-6.91 14.4-8.044a27 27 0 0 1 16.25 1.673c5.139 2.225 9.532 5.992 12.622 10.825s4.74 10.516 4.74 16.329c0 7.795-2.963 15.271-8.238 20.783S35.584 59 28.125 59zm0-3.919c4.821 0 9.534-1.494 13.542-4.293s7.133-6.777 8.978-11.432a26.54 26.54 0 0 0 1.387-14.718c-.941-4.941-3.262-9.48-6.671-13.043s-7.752-5.989-12.48-6.971a23.4 23.4 0 0 0-14.083 1.45c-4.454 1.928-8.261 5.193-10.939 9.382S3.75 24.57 3.75 29.608c0 6.756 2.568 13.235 7.139 18.012s10.771 7.461 17.236 7.461zm5.386-16.11l-9.385-10.016 9.385-10.016c.313-.336.489-.79.489-1.263s-.176-.928-.489-1.263a1.63 1.63 0 0 0-1.186-.521 1.63 1.63 0 0 0-1.186.521L20.443 27.808c-.284.305-.442.717-.442 1.147a1.69 1.69 0 0 0 .442 1.147L31.14 41.497a1.63 1.63 0 0 0 1.186.521 1.63 1.63 0 0 0 1.186-.521c.313-.336.489-.79.489-1.263s-.176-.927-.489-1.263z"/></svg>