<svg width="46" height="46" viewBox="0 0 46 46" fill="none" xmlns="http://www.w3.org/2000/svg">
<path d="M23 46C10.2971 46 0 35.7029 0 23C0 10.2971 10.2971 0 23 0C35.7029 0 46 10.2971 46 23C46 35.7029 35.7029 46 23 46ZM23 2.5021C11.7406 2.5021 2.50209 11.7406 2.50209 23C2.50209 34.2594 11.7406 43.4979 23 43.4979C34.2594 43.4979 43.4979 34.2594 43.4979 23C43.4979 11.7406 34.2594 2.5021 23 2.5021Z" fill="white"/>
<path d="M22.5184 36.184L20.7861 34.3555L32.0455 22.9999L20.7861 11.6443L22.5184 9.8158L35.7025 22.9999L22.5184 36.184Z" fill="white"/>
<path d="M33.8746 24.3473H10.7783V21.6527H33.8746V24.3473Z" fill="white"/>
</svg>
