<svg xmlns="http://www.w3.org/2000/svg" width="57" height="59" fill="silver" xmlns:v="https://vecta.io/nano"><path d="M28.125 59c5.563 0 11-1.724 15.625-4.953s8.23-7.82 10.359-13.191 2.686-11.28 1.601-16.982-3.764-10.939-7.697-15.049-8.945-6.91-14.401-8.044a27 27 0 0 0-16.25 1.673C12.223 4.678 7.83 8.445 4.74 13.279S0 23.795 0 29.608c0 7.795 2.963 15.271 8.238 20.783S20.666 59 28.125 59zm0-3.919c-4.821 0-9.534-1.494-13.542-4.293S7.45 44.011 5.605 39.356a26.54 26.54 0 0 1-1.387-14.718c.941-4.941 3.262-9.48 6.671-13.043s7.752-5.989 12.48-6.971a23.4 23.4 0 0 1 14.083 1.45c4.454 1.928 8.261 5.193 10.939 9.382S52.5 24.57 52.5 29.608c0 6.756-2.568 13.235-7.139 18.012s-10.771 7.461-17.236 7.461zm-5.386-16.11l9.385-10.016-9.385-10.016c-.313-.336-.489-.79-.489-1.263s.176-.928.489-1.263a1.63 1.63 0 0 1 1.186-.521 1.63 1.63 0 0 1 1.186.521l10.697 11.395c.284.305.443.717.443 1.147s-.159.841-.443 1.147L25.111 41.497a1.63 1.63 0 0 1-1.186.521 1.63 1.63 0 0 1-1.186-.521c-.313-.336-.489-.79-.489-1.263s.176-.927.489-1.263z"/></svg>